Coordinates
version=1
nRows=11
nColumns=36
inDegrees=yes

Units are S.I. units (second, meters, Newtons, ...)
If the header above contains a line with 'inDegrees', this indicates whether rotational values are in degrees (yes) or radians (no).

endheader
time	pelvis_tilt	pelvis_list	pelvis_rotation	pelvis_tx	pelvis_ty	pelvis_tz	hip_flexion_r	hip_adduction_r	hip_rotation_r	knee_angle_r	knee_angle_r_beta	ankle_angle_r	subtalar_angle_r	mtp_angle_r	hip_flexion_l	hip_adduction_l	hip_rotation_l	knee_angle_l	knee_angle_l_beta	ankle_angle_l	subtalar_angle_l	mtp_angle_l	lumbar_extension	lumbar_bending	lumbar_rotation	arm_flex_r	arm_add_r	arm_rot_r	elbow_flex_r	pro_sup_r	arm_flex_l	arm_add_l	arm_rot_l	elbow_flex_l	pro_sup_l
      0.00000000	     -1.73533340	     -3.34551201	     -0.56180251	     -0.04376022	      1.01570675	      0.08023591	      0.56609767	     -3.30637524	    -14.29367119	      0.61050389	      0.01065530	      0.97466091	     -3.07412341	     -7.70940972	     -1.65406522	    -11.29167904	    -15.14357842	      0.57850478	      0.01009681	      5.30022643	      5.27334278	     -7.70940972	      2.44668618	      3.65579544	      2.62503559	     39.75478554	      6.56354677	     66.49182454	    118.44061160	    102.06176341	     48.07865325	      1.34317063	     73.34866179	    115.36202650	     93.83287855
      0.01666670	     -3.37141414	     -3.48382110	     -0.61429920	     -0.03618212	      1.01135824	      0.07973665	      2.28656013	     -3.05242022	    -15.73353081	      0.91072737	      0.01589519	      3.53167236	     -0.91693529	     -7.65770240	      0.21633578	    -11.40513499	    -17.60594054	      0.65087313	      0.01135988	      6.02379329	      6.95694014	     -7.65770240	      5.26916966	      3.63340511	      1.35950120	     39.45925026	      6.25613091	     66.82688676	    120.29209967	     99.94981351	     49.17310851	      0.05938855	     73.75754206	    118.97752027	     89.43308103
      0.03333330	     -4.28445287	     -2.99252262	     -0.91383244	     -0.03243672	      1.00892458	      0.07999817	      2.97254178	     -3.40731750	    -17.04334829	      0.58787683	      0.01026039	      3.59670101	      0.23562722	     -7.53407719	      1.12152771	    -10.91967994	    -19.11073969	      0.65438852	      0.01142123	      5.90242342	      8.10685368	     -7.53407719	      6.92955684	      2.99704589	      1.22522144	     39.01975111	      6.76726097	     69.87369580	    121.71120429	    100.11370426	     49.38042460	     -1.06709620	     74.15327557	    120.26143847	     83.22190092
      0.05000000	     -4.57792940	     -2.84179744	     -0.37052643	     -0.03496228	      1.00927261	      0.07849907	      3.29188016	     -3.65010993	    -17.93870959	      0.58075645	      0.01013611	      3.90298294	      0.86161885	     -7.50501944	      1.62537105	    -10.74839535	    -19.69214642	      0.50803171	      0.00886683	      5.95508254	      8.90057890	     -7.50501944	      7.69161851	      2.52536860	      1.11878676	     38.99325523	      7.25834009	     73.08759607	    123.15697664	     98.75789899	     50.52269450	     -0.63908662	     75.19964330	    120.14396224	     78.06860977
      0.06666670	     -4.72985076	     -2.74964750	     -0.11197312	     -0.03235897	      1.01078108	      0.07865841	      3.41301573	     -3.76424340	    -18.11480347	      0.58647987	      0.01023600	      3.89033956	      0.90026255	     -7.50496193	      1.78943650	    -10.66280062	    -19.67474975	      0.45992684	      0.00802724	      5.77597608	      9.13748354	     -7.50496193	      8.14042763	      2.53258094	      1.13898113	     38.46878086	      7.21011668	     73.81151066	    122.30589284	     98.61073211	     50.69626050	     -0.19425201	     75.58695423	    119.87094393	     77.70708871
      0.08333330	     -4.59079857	     -2.66555467	     -0.11856855	     -0.03309587	      1.00963264	      0.07949156	      3.29912189	     -3.78675491	    -17.85707509	      0.65897018	      0.01150120	      4.03313528	      0.74189776	     -7.50432832	      1.66187754	    -10.59879450	    -19.22581767	      0.57544654	      0.01004344	      5.64175035	      8.69244726	     -7.50432832	      8.17398373	      2.53548671	      1.66223687	     38.43042447	      6.81713181	     72.97363689	    120.95075853	     96.02030323	     50.95334826	      0.23277023	     75.96118742	    119.81460446	     75.89197350
      0.10000000	     -4.56732673	     -2.57421693	      0.16266773	     -0.02733852	      1.01048230	      0.07951297	      3.09091285	     -3.85044927	    -17.85576196	      0.55642773	      0.00971150	      4.21472728	      0.74373703	     -7.50431395	      1.61327989	    -10.53632172	    -19.21758923	      0.51236134	      0.00894239	      5.44489086	      8.83415520	     -7.50431395	      8.47580198	      2.44106260	      1.61185276	     38.22103972	      6.50064990	     72.90795086	    120.56260242	     95.95227094	     50.82922774	      0.54217235	     76.15167010	    119.91495478	     75.69463942
      0.11666670	     -4.46030415	     -2.43732900	      0.00420942	     -0.02760356	      1.00694040	      0.08090588	      2.88834659	     -3.92711192	    -17.80723723	      0.55967465	      0.00976817	      4.59856731	      0.96302178	     -7.50374018	      1.40447511	    -10.44875800	    -18.98842609	      0.61837723	      0.01079272	      5.49471797	      8.54047395	     -7.50374018	      8.62651807	      2.28619551	      1.90512772	     38.22106597	      6.78015521	     72.13157612	    119.43646453	     93.32010433	     51.29128965	      0.69603693	     76.46874896	    119.88517052	     73.14393268
      0.13333330	     -4.31716743	     -2.45134216	      0.14477259	     -0.02070703	      1.00584651	      0.07975813	      2.55893281	     -3.90402420	    -17.59511954	      0.62470926	      0.01090323	      4.74546057	      0.58980331	     -7.50367885	      1.08777176	    -10.46602902	    -18.98994849	      0.64587992	      0.01127273	      5.42366383	      8.51097339	     -7.50367885	      8.86342560	      2.29765910	      1.72530907	     37.93988378	      6.62050977	     70.54831915	    117.75297119	     92.94353492	     51.09871768	      0.75020407	     76.56090872	    120.16018532	     71.97962477
      0.15000000	     -4.33138607	     -2.41763485	      0.24384946	     -0.02336927	      1.01075375	      0.07932785	      2.45687047	     -3.96342413	    -17.59198646	      0.63033222	      0.01100137	      4.75620781	      0.56996568	     -7.50367627	      0.93250588	    -10.43930042	    -18.97667954	      0.64458789	      0.01125018	      5.38935169	      8.53110859	     -7.50367627	      9.09184965	      2.30977497	      1.71874494	     37.90779938	      6.55763385	     70.52273541	    117.77979038	     92.92586351	     50.99707675	      0.75693016	     76.61429749	    120.21826199	     71.93249464
      0.16666670	     -4.43199042	     -2.41509224	      0.41163324	     -0.02304175	      1.01107958	      0.07828078	      2.50468798	     -3.98581666	    -17.38141186	      0.64192526	      0.01120371	      4.68245298	      0.02653346	     -7.50066368	      0.94623880	    -10.36271033	    -18.98570441	      0.55310261	      0.00965346	      5.29386396	      8.68877544	     -7.50066368	      9.49241996	      2.21220544	      1.69504000	     37.71197453	      6.76503441	     70.82797910	    118.10923418	     89.17679068	     50.57075678	      0.79703976	     77.30164715	    120.76167640	     60.72092131
